<svg xmlns="http://www.w3.org/2000/svg" xmlns:xlink="http://www.w3.org/1999/xlink" width="37" height="37" viewBox="0 0 37 37"><defs><clipPath id="a"><rect width="37" height="37" transform="translate(-4269 -12831)" fill="#fff" stroke="#707070" stroke-width="1"/></clipPath></defs><g transform="translate(4269 12831)" clip-path="url(#a)"><g transform="translate(-4268.492 -12830.503)"><path d="M18,33a1.5,1.5,0,0,1-1.5-1.5V21.621l-3.439,3.439a1.5,1.5,0,1,1-2.121-2.121l6-6,.015-.015h0a1.495,1.495,0,0,1,1.023-.425h.047a1.495,1.495,0,0,1,1.023.425h0l.027.027h0a1.495,1.495,0,0,1,.425,1.023v0q0,.011,0,.022s0,0,0,0V31.5A1.5,1.5,0,0,1,18,33Z" fill="#fff"/><path d="M30.586,29.085a1.5,1.5,0,0,1-.719-2.817A6,6,0,0,0,27,15H25.11a1.5,1.5,0,0,1-1.452-1.125A10.5,10.5,0,1,0,5.624,23.457a1.5,1.5,0,1,1-2.248,1.987A13.5,13.5,0,1,1,26.219,12H27a9,9,0,0,1,4.3,16.9A1.494,1.494,0,0,1,30.586,29.085Z" fill="#fff"/><path d="M24,25.5a1.5,1.5,0,0,1-1.061-.439L18,20.121l-4.939,4.939a1.5,1.5,0,0,1-2.121-2.121l6-6a1.5,1.5,0,0,1,2.121,0l6,6A1.5,1.5,0,0,1,24,25.5Z" fill="#fff"/></g></g></svg>